<svg xmlns="http://www.w3.org/2000/svg" viewBox="0 0 96 96" width="96" height="96" style="width: 256px; height: 256px">
  <path d="m83.8 41.4c1.1-1.8 1.8-4.1 1.8-7-0.2-5.4-3.4-10.4-8.8-12.4 3.3-2.8 5-6.3 5-10v-2.9l-4.6 2.9c-2.9 1.8-4.8 2.6-10.9 3.2 1-2.1 1.5-4.9 0.9-8.1l-0.8-3.4-2.9 2.5c-3.1 2.7-5.5 2.9-8.7 4.3l-1.2 0.6c1.8-4 4.3-6.1 6-8.1l2.4-2.3h-12.3l-0.5 0.7c-1.9 2.3-3.8 6.1-5.3 10.7-4.5-2.9-6.8-2.5-10.5-5.1l-3.9-3.3-0.7 3.2c-0.8 4 0 6.7 0.7 8.3-6.1-0.5-8.3-1.4-10.9-3l-4.4-3v2.7c0 3.5 1.4 6.8 4.8 10.1-4.1 1.4-8.5 5.5-8.5 12.1 0 2.3 0.6 4.9 1.7 7.1-2 2.1-3.5 5.2-3.5 9.3 0.1 4.9 2.7 9.2 6.8 11.6-0.4 1.2-0.6 2.4-0.6 4 0 5.4 4 10.8 9.8 12.6 0.8 5.1 5.2 10.7 12.2 10.8h0.6c1.9 3 5.4 6 10.4 6 4.9 0 8.5-2.4 10.6-6 6.7 0.1 11.4-4.5 12.6-10.7 4.6-0.8 10-5.5 10-12.6 0-1.2-0.2-2.6-0.6-4.1 3.4-1.7 6.9-5.8 6.9-11.6 0-3.2-1.2-6.6-3.6-9.3v0.2z" fill="#010101" />
  <path d="m45.3 17.2c-4.1-5.2-8.8-5.4-11.7-7.1l-2.4-1.7c-0.3 3.9 1.8 7.8 4.2 10l4.5 4.5 5.7 3.4 0.6-2.5-0.9-6.6z" fill="#70BF0C" />
  <path d="m55.5 3.1h-4.5c-2.5 3.1-5.8 9.5-6 19.7-3.8-3.1-7.5-4.1-13.4-4.9-6-0.4-9.5-0.7-14.5-4 1 4.2 5.9 8.7 13.2 11.6l10.8 4.6 13.9-1.7 0.5-25.3z" fill="#A1E52E" />
  <path d="m48.9 19.8c3.8-8 11.4-8 13.8-9.7l1.9-1.6c0.5 3.9-1.5 7.2-4 9.9l-4.7 6.4-6.8 0.7-0.2-5.7z" fill="#70BF0C" />
  <path d="m48.9 24.6c5.9-6.8 13.4-6.5 17.8-6.9 5.4-0.4 8.7-1.1 12-3.7-1.1 4.4-6.5 8.8-12.5 11.4l-9.8 4.3-7.6-1.9 0.1-3.2z" fill="#A1E52E" />
  <path d="m22 24.1c-3.9 0.4-8.6 3.8-8.7 10 0 3 1.3 5.5 2.6 7.6l11.3-2.9 4.2-11.5-9.4-3.2z" fill="#E1006B" />
  <path d="m16.6 28.3c1.1-1.4 2.9-2 3.9-1.2 1 0.7 1 2.5-0.1 4-1.1 1.4-3 2.3-4.1 1.5-1.2-0.8-0.9-2.9 0.3-4.3z" fill="#FF45B3" />
  <path d="m13.5 36.6h2v2.7h0.9l1.5-0.4v-1h1.6c0-6.5 4.9-10 9-11.8l2.3 3.1c-2.1 0.9-7.3 3.7-7.4 7.9l1.4 3.1-9 1.5c-0.8-1.1-1.8-2.3-2.3-5.1z" fill="#91001D" />
  <path d="m19.7 40.5c-3.6 0.1-8.2 3.6-8.2 9.8 0 4.6 2.9 9.3 7.8 10.2l6.6-10-0.7-7.9-5.5-2.1z" fill="#E1006B" />
  <path d="m13.6 46.6c0.6-1.6 2-3 3.3-2.4 1.4 0.4 1.5 2.4 0.8 4.1-0.8 1.7-2.2 2.6-3.3 2s-1.3-2.2-0.8-3.7z" fill="#FF45B3" />
  <path d="m12.7 55.2h2.7v2.5h3.4c-0.9-6.2 1.6-10.1 4.5-12.6l3.1 1.4c-2 1.2-5.4 3.8-5.3 8.4 0 3.9 1.5 6 3 7.5l-2.4-0.9-2.3-1c-3.1-0.5-5.3-2.2-6.7-5.1v-0.2z" fill="#91001D" />
  <path d="m24.2 47.1c-1.6 1.4-3.2 3.8-3.1 7.8 0.1 5.2 3.5 9.1 6.8 9.9l5.6-0.8 2.5-7.6 0.2-7-8.6-2-3.4-0.3z" fill="#E1006B" />
  <path d="m23.3 51.5c0.6-1.6 2.1-3 3.5-2.3 1.1 0.5 1.3 2.4 0.5 4.2-0.7 1.5-2.3 2.5-3.4 1.7-1-0.5-1.2-2.2-0.6-3.6z" fill="#FF45B3" />
  <path d="m18.1 63.4c-0.4 1-0.4 2-0.2 4.3 0.5 3.8 4.3 8.5 8.8 8.7l3-2.1-0.9-8.7-4.7-2c-1.1-0.7-5.2 0.2-6-0.2z" fill="#E1006B" />
  <path d="m17.9 65.2h2.5v2.6h-2.5z" fill="#91001D" />
  <path d="m20.3 67.8h2.7v2.8h-2.7z" fill="#91001D" />
  <path d="m23 70.5h2.6v2.6h-2.6z" fill="#91001D" />
  <path d="m25.4 73.1h1.3v2.4h-1.3z" fill="#91001D" />
  <path d="m18.6 60c-0.5 1.1-0.5 1.1-0.5 3.3 1 0.3 1.7 0.5 2.3 0.5v1.4h2.6v-0.2l2-1.1-4.5-4h-1.9z" fill="#91001D" />
  <path d="m28.5 66.6c-0.6 1.9-0.9 6.4 1.1 9.8 1.5 2.7 4.3 5.7 8.5 5.8 3.8 0.2 6.7-2.5 7.8-5.1 0.5-1.9 0-5.4-0.5-6.6l-10.8-6.9-6.1 3z" fill="#E1006B" />
  <path d="m30.7 69c0.5-1.6 1.9-2.9 3.3-2.5s1.7 2.2 1 4.2c-0.6 1.4-2.1 2.9-3.4 2.2-1-0.6-1.5-2.2-0.9-3.9z" fill="#FF45B3" />
  <path d="m27.6 80.2 1.5 0.2 2.5 1.3 1.4 1.4h2.5v2.1h3.9l-0.5 1.9c-4 0.6-8.9-1.5-11-6.6l-0.3-0.3z" fill="#91001D" />
  <path d="m30.4 81.6h2.7v3.6h-2.7z" fill="#E1006B" />
  <path d="m33.1 83.4h2.4v1.8h-2.4z" fill="#E1006B" />
  <path d="m27.6 64.4c-0.5 0-1.9 2-2.1 3.7v4.2l0.7 3.1c0.4 0.5 1.7 1.2 2.6 0-1.2-2.8-1.2-7.4-0.3-8.8 2.1 0 4.2-1 6.1-2l-1-2-4.2 0.4-1.8 1.4z" fill="#91001D" />
  <path d="m32.4 27.5c-4.4 0.4-10.5 3.9-10.4 10.8 0.1 4.2 4.1 9.1 9.4 9.4l6-3.1 3.5-8.1-0.6-7.1z" fill="#E1006B" />
  <path d="m26.2 31.6c1.4-1.7 3.4-2.8 4.7-1.9 1.3 0.8 0.7 2.9-0.4 4.5-1.4 1.7-3.4 2.8-4.8 1.7-1.1-0.9-0.7-3 0.5-4.3z" fill="#FF45B3" />
  <path d="m25.4 42.9h2.6v2.5h-0.1 0.1v1.7l1.7 1 1.7-0.7v-2h-3.5 2.5 2.6v-2.5h-2.5v-5.2l5 0.2v2.6h-2.5v2.5h2.6v2.6h-2.6v2.9l3.1-0.8 1-3.3-0.5-4.3-1-2.2h0.5c0.1-4.4 2-7.4 3.3-9.1l2 1.2 0.5 8.6-3.8 6.9-4.6 4.4c-3.5 0.5-6.8-0.5-9.6-2.8l1.5-4.2z" fill="#91001D" />
  <path d="m37.9 46.9c-2.2 2.1-3.9 5.1-3.8 9.6 0.1 5.5 3.6 11.2 9.3 11.4 5.5 0.1 8.5-4.5 9.2-6 0.9-2.4 1.2-7.5-1.2-12.3l-6.5-3.1-7 0.4z" fill="#E1006B" />
  <path d="m36.6 53.4c0.6-1.5 2-2.9 3.3-2.2 1.3 0.5 1.3 2.7 0.6 4.3-0.8 1.5-2.1 2.4-3.4 1.6-1-0.6-1.1-2.5-0.5-3.7z" fill="#FF45B3" />
  <path d="m32.1 56.6c0.4 1.3 2 2 2 2 0.5 1.8 0.9 3.5 2 5.2l-2 0.1c-1.5-2.4-2.2-5.4-2-7.3z" fill="#91001D" />
  <path d="m44.8 87.7-4.2-0.1-0.1 1.5 1 0.9 1.5 1.1 3.1 1.4h4.4l0.6-0.5 1.6-0.9 1.7-1.2 1-0.9v-1.5l-4.8-1.4-2.6-2-2.5 1.5z" fill="#E1006B" />
  <path d="m43 87.5h2.5v-2.3l-2.5 1.9v0.4z" fill="#91001D" />
  <path d="m40.5 87.6v1.4l1 1h1.6v-2.5z" fill="#91001D" />
  <path d="m43 89.9v1.3c2 1.4 5.5 2.2 7.4 1.3v-2.5h2.3v1.1l1.6-1.1v-0.1h-1.4v-2.3h2.5v1.4l1-1.3c-2.6 0.2-5.8-1.1-7.3-2.5h1.2v2.5h-2.4v2.3h-4.9z" fill="#91001D" />
  <path d="m37.9 84.5 1 2.4c3.5 0.8 7.8-1 9.2-2.5l-0.7-4.3h-5.5l-4.4 2.1 0.4 2.3z" fill="#91001D" />
  <path d="m38.1 78.1h2.4v2.4h-2.4z" fill="#91001D" />
  <path d="m40.5 75.5h2.5v2.6h-2.5z" fill="#91001D" />
  <path d="m43 73.1h2.6v2.4h-2.6z" fill="#91001D" />
  <path d="m43 70.5v2.6h2.7c-0.1-1-0.2-1.7-0.3-2.6h-2.4z" fill="#91001D" />
  <path d="m35.5 77.7h2.6v2.7h-2.6z" fill="#91001D" />
  <path d="m38.1 75.5h2.4v2.2h-2.4z" fill="#91001D" />
  <path d="m40.5 73.1h2.5v2.4h-2.5z" fill="#91001D" />
  <path d="m34 80.4c0.6 0.5 1.4 1.1 1.6 1.3v-1.3h-1.6z" fill="#91001D" />
  <path d="m38.1 80.4v1.8c0.8 0 2.4-0.2 3-0.5v-1.3h-3z" fill="#91001D" />
  <path d="m41.1 78.1v2.4l2-0.1v-2.7z" fill="#91001D" />
  <path d="m43 75.5v2.2h2.6v-2.2z" fill="#91001D" />
  <path d="m48.8 68.7c-0.4 0.9-0.9 2.2-0.9 3.8v5.2l10 2 5.1-2c1.4-1.8 2.9-4.6 2.6-8.2l-0.2-3.3-10.5-3.3-2.2 1-3.9 4.8z" fill="#E1006B" />
  <path d="m50.6 69.9c0.5-1.5 1.9-3.3 3.3-2.8 1.5 0.4 1.6 2.5 0.7 4.5-0.7 1.4-2.2 2.5-3.5 1.8-0.7-0.4-1.2-1.9-0.5-3.5z" fill="#FD0F8D" />
  <path d="m50.3 77.7h2.4v2.7h-2.4z" fill="#91001D" />
  <path d="m52.7 77.7v3.9c0.8 0.3 1.9 0.5 2.7 0.5v-4.4h-2.7z" fill="#91001D" />
  <path d="m55.2 77.7v2.7h2.7v-2.8z" fill="#91001D" />
  <path d="m57.9 77.7v4.2c1-0.3 2-0.7 2.6-1.2v-3.1l-2.6 0.1z" fill="#91001D" />
  <path d="m60.5 77.7v2.2c0.7-0.3 2.2-1.3 2.5-2.2h-2.5z" fill="#91001D" />
  <path d="m60.5 67.7v4l2.5-1.2v-2.8z" fill="#91001D" />
  <path d="m63 70.5v2.4h2.4v-2.4z" fill="#91001D" />
  <path d="m63 75.5h1.6c-0.2 1-1.1 2.2-1.5 2.6l-0.1-2.6z" fill="#91001D" />
  <path d="m56.9 29.1-0.5 0.6-0.4 2.2 1.9 1.2c2 4.5 1.6 9 0.2 12.8l2.4 1.5 5.7 1.1 2.4-0.8 4.9-4.3 0.9-4.5-1-7.3-3-4-5.4-1.1c-3.1-0.3-5.9 0.9-8.1 2.6z" fill="#B5002A" />
  <path d="m59.1 31.7c0.3-1.2 1.5-2.8 2.8-2.2 1.2 0.6 1.2 2.6 0.6 4.2-0.5 0.9-1.5 1.9-2.5 1.3-0.9-0.6-1.1-2.1-0.9-3.3z" fill="#FD0F8D" />
  <path d="m64.4 80.2h2.5l0.2 1.7-1.7 0.5-2.5 1.1-1.8 3.1-0.7 0.1 4-1.6 2.5-2.6 0.7-0.9 0.1-0.1v-0.1l0.2-0.3v-0.1c0.1-0.1 0 0.1 0.2-0.6l-3.7-0.2z" fill="#91001D" />
  <path d="m60.5 85.2h2.4v0.9l-1.4 0.4z" fill="#91001D" />
  <path d="m49.1 27.5-6.6 0.6-3.6 4.9-1.4 5.4 0.9 6.2 4.6 2 4.4-0.6 4.1-1.4 4.9-5.5v-6.7l-2.9-3.5z" fill="#E1006B" />
  <path d="m41.1 33.4c0.9-1.7 2.8-3.4 4.1-2.9 1.7 0.5 1.3 3.1 0.2 5.1-1 1.4-2.8 3-4.4 1.8-1.1-0.9-0.6-3 0.1-4z" fill="#FF45B3" />
  <path d="m39.4 44.6 3.6 0.8h2.5c3.4-0.5 6.5-2.9 7.6-8v-7.7h0.7l1.3-1.3c-2.4-2-6.6-4.5-12-2l-2.1 1.2-0.5 1.8 1.6 0.7c2.5-2 5.3-3 8.5-2.2l0.3 0.2c1.6 2 2 4 1.7 8-0.5 3.4-2.5 8.3-7.2 9.3h-2.4c-1.1 0.1-2.9-0.4-4.1-1l0.5 0.2z" fill="#91001D" />
  <path d="m53.5 61.2c1 1.7 3.4 3.4 4.6 3.4l2.5 0.9 3.3-0.9 1.5-1 4.1-3.7 1.4-3.5v-5.8l-1.3-1.6-3.1 0.4c-2.6 0.2-6.6-0.8-9-2-1.4 2-4.6 4-5.3 4 1.9 3.2 1.9 7.5 1.3 9.8z" fill="#B5002A" />
  <path d="m55.5 52.9c0.6-1.5 2.1-3.3 3.6-2.4 1.4 0.7 1 3.5 0 4.7-0.7 1.2-2.2 1.9-3.2 1.2-0.8-0.7-0.8-2.3-0.4-3.5z" fill="#FD0F8D" />
  <path d="m45.2 50.6c1.7 1 4.9 1.3 6.8 0.9l0.5-0.8-0.4-1.8-4.2-0.5-2.5-0.7-4.9-2.7-2.5 1.9c2.4 3.8 5.9 5.6 10.5 5.2l1.9-0.2-0.1-1.3h-5.1z" fill="#91001D" />
  <path d="m37.2 44.4-2.4 2.5 1.8 1h0.1c0.9-0.9 1.9-1.5 2.8-1.9l-0.9-1.6-0.6-2.8-0.8 2.8z" fill="#010101" />
  <path d="m53 35.2h2.4v2.7h-2.4z" fill="#91001D" />
  <path d="m45.5 45.4h2.4v2.3h-2.4z" fill="#91001D" />
  <path d="m47.9 47.7h2.6v2.7h-2.6z" fill="#91001D" />
  <path d="m50.4 52.7h2l0.3 0.9v1.6h-2.3z" fill="#91001D" />
  <path d="m50.4 57.7h2.3l-0.2 1.4-0.4 0.9h-1.7z" fill="#91001D" />
  <path d="m47.9 52.9h2.5v2.3h-2.5z" fill="#91001D" />
  <path d="m47.9 57.7h2.5v2.4h-2.5z" fill="#91001D" />
  <path d="m45.4 60.1h2.5v2.5h-2.5z" fill="#91001D" />
  <path d="m43 62.6h2.4v2.5h-2.4z" fill="#91001D" />
  <path d="m38.1 62.6h2.4v2.5h-2.4z" fill="#91001D" />
  <path d="m27.9 60h2.6v2.6h-2.6z" fill="#91001D" />
  <path d="m23 60.1h2.4v2.4h-2.4z" fill="#91001D" />
  <path d="m30.5 57.7h2l0.1 1.9-0.1 0.5h-2z" fill="#91001D" />
  <path d="m38 65.1h2.5v1.8l-1-0.4-1.4-1z" fill="#91001D" />
  <path d="m44.6 65.1h4.6l-1.3 1.3-2.4 1.1-2.5 0.2v-2.6z" fill="#91001D" />
  <path d="m25.4 62.6h2.5v2l-1.5-0.7-1.6-1z" fill="#91001D" />
  <path d="m27.9 64.6 2.6-0.6v-1.4h2.9c0.1 0.8 0.7 1 1.1 1.4l-0.6 0.6-3.5 1.6-2.3 0.2-0.2-1.8z" fill="#91001D" />
  <path d="m18.9 57.7c0.6 3 3.7 7.8 7.5 9.2 0.7-0.8 0.7-1.9 1.5-2-2.4-0.5-5-3-6.3-6.4-1.2 0.4-2.1 0.1-2.7-0.8z" fill="#010101" />
  <path d="m34.6 63.9c1.8 2.7 5.3 6.6 10.8 6.6 4 0 8-4.5 8-6.1l-1.3-2.8c-0.6 1.4-3.2 6.3-8.7 6.3-5 0-8.4-4.3-9.3-9.3l0.5 5.3z" fill="#010101" />
  <path d="m52.1 62.9c1.7 2.2 4.8 4.8 9.3 4.8 3 0 6.2-1.3 6.2-3.1l-0.5-1.7-2.2 1c-2.3 1.7-7.3 2.1-11-1.8l-0.5-1.1-1.3 1.9z" fill="#010101" />
  <path d="m37.9 84.6c0.5 1 1.1 3 1.6 3 3.2 0.1 6.4-1 8.4-3.2l0.2-4-2.2-2.7c-1 2.2-4 4.7-7.8 4.5-4 0-7.7-3.6-9.3-6.8l-2.4 2.6c2.1 4 6.1 6.9 11.6 6.6h-0.1z" fill="#010101" />
  <path d="m47.9 84.4c2.2 2 5.5 3.5 8.5 3.3 1.5-0.1 2-2.1 3.5-3.1l-0.3-2.1-1.7-0.6c-1.9 0.7-4 0-5.2-0.4v-3.8h-4.8v6.7z" fill="#010101" />
  <path d="m57.9 81.9-0.3 3 1.5 2.7c3.8-0.7 6.9-2.5 8.5-5.7l-2.2-1.7-2.4-0.2-0.6 0.9c-1 0.6-3.3 1.6-4.5 1z" fill="#010101" />
  <path d="m70 26.5 3.9-1.4 1.7-1.2 3.5 1.6 3.4 4.6v3.9l-1.4 5-2 1.5-3.4-0.1-1.3-0.3v-4.9l-2.9-5.2-2.5-2.1z" fill="#91001D" />
  <path d="m70.4 72.5 0.7 3.4h1.8l3.1-2 2.4-3.5 0.1-5.3h-2.5-2.6l-3 5z" fill="#91001D" />
  <path d="m77.1 43.9-4.7 3-1 2.5 0.5 7 1.6 3.5 2.9 1.2 3.5-1.2 3.6-3.8 1.1-4.6-0.6-5-2.5-3.5z" fill="#B5002A" />
  <path d="m54.6 27.6c-2.6-1.7-7.5-4.1-13.6-0.1-5.5-3.9-12.1-3.4-16.4 0.4l1.9 1c3.5-2.3 9.1-2.8 12.5 0.3l2 1.3 2.1-1.4c3.5-2.5 7.3-2.2 10.5 0.5l1 0.4 1.8-0.3v-1.3l-1.8-0.8z" fill="#010101" />
  <path d="m54.6 27.6v2.1l2-0.1c1.9-1.6 5-2.5 8-2l2-1.6-0.1-0.4c-3.5-0.7-7.4-1-11.9 2z" fill="#010101" />
  <path d="m57.9 33c-0.3 1.7-0.9 2.1-1.3 2.2 0.4 1.2 0.5 2.7 0.8 4.4 0 3.4-1.9 7-4.3 8.1h-2.7v3.9c3.1 0.3 6-2.7 7.2-4.2 2.3-5.8 2-10.5 0.3-14.4z" fill="#010101" />
  <path d="m64.6 27.5 0.9 0.1v1h1 1.5v1.3h1.4v-0.3c0.5 0 1.1 0.4 1.1 0.5v1.1h1.4v0.3l0.5 0.6v0.4h0.6c0.6 0.6 1.5 3.5 1.5 5.6-0.9 6.3-8 10.9-11.5 9.3h-2.6v-0.3l-1.3-0.2-1-1-1 0.1v1.1c2 1.4 6.4 3 9.5 2.6 3.5-0.3 8.4-4.2 9-8.3 1.5-5.3-0.5-13-7.6-15.4l-1.5-0.4c-0.9 0.5-1.4 1-1.9 1.9z" fill="#010101" />
  <path d="m66.5 66.1-0.9 0.5c1 3.4 1.1 7.8-2.6 11.5l0.1 2.9 1.3-0.9 2.2 1.8c2.9-2 4.5-4.8 3.8-12l-1.9-3.8h-2z" fill="#010101" />
  <rect x="52.7" y="31.1" width="2.6" height="2.1" fill="#91001D" />
  <rect x="55.4" y="35.2" width="1.6" height="2.6" fill="#91001D" />
  <rect x="52.6" y="38" width="2.5" height="2.4" fill="#91001D" />
  <rect x="51.5" y="40.5" width="1.4" height="2.5" fill="#91001D" />
  <rect x="50.3" y="42.9" width="2.6" height="2.4" fill="#010101" />
  <rect x="54.1" y="40.5" width="2.1" height="2.5" fill="#010101" />
  <rect x="55.5" y="40.4" width="1.6" height="2.5" fill="#91001D" />
  <rect x="52.9" y="42.9" width="2.4" height="2.5" fill="#B5002A" />
  <rect x="47.9" y="45.4" width="2.6" height="2.4" fill="#010101" />
  <rect x="52.1" y="45.4" width="2.6" height="2.4" fill="#010101" />
  <rect x="50.4" y="47.7" width="2.9" height="2.7" fill="#010101" />
  <rect x="45.4" y="47.7" width="2.5" height="2.9" fill="#010101" />
  <rect x="43" y="45.4" width="2.4" height="2.4" fill="#010101" />
  <rect x="49.6" y="55.2" width="3.6" height="2.4" fill="#010101" />
  <rect x="47.9" y="62.6" width="2.8" height="2.4" fill="#010101" />
  <rect x="58.1" y="63.9" width="2" height="1.6" fill="#010101" />
  <rect x="59.1" y="62.5" width="1.4" height="1.4" fill="#010101" />
  <rect x="61.5" y="62.5" width="1.5" height="1.4" fill="#010101" />
  <rect x="62.9" y="61.4" width="1.4" height="1.5" fill="#010101" />
  <rect x="64.1" y="60.1" width="2.5" height="1.1" fill="#010101" />
  <rect x="64.2" y="62.5" width="1.4" height="1.1" fill="#010101" />
  <rect x="61.5" y="64" width="1.4" height="1.1" fill="#010101" />
  <rect x="57.9" y="73.1" width="2.4" height="2.4" fill="#010101" />
  <rect x="55.4" y="75.5" width="2.6" height="2.4" fill="#010101" />
  <rect x="60.4" y="70.5" width="2.5" height="2.6" fill="#010101" />
  <rect x="62.9" y="67.7" width="2.5" height="2.7" fill="#010101" />
  <rect x="60.5" y="75.5" width="2.1" height="2.4" fill="#010101" />
  <rect x="59.1" y="86.1" width="1.4" height="1" fill="#010101" />
  <rect x="62.9" y="81.5" width="1.4" height="1.4" fill="#91001D" />
  <rect x="64.1" y="82.6" width="1.4" height="1.4" fill="#91001D" />
  <rect x="65.4" y="81.5" width="1.4" height="1.4" fill="#91001D" />
  <rect x="62.9" y="84.1" width="1.4" height="1.4" fill="#91001D" />
  <rect x="73" y="24.1" width="1.4" height="1.4" fill="#91001D" />
  <rect x="75.4" y="24.4" width="1.4" height="1" fill="#91001D" />
  <rect x="76.6" y="25.2" width="1.4" height="1.4" fill="#B5002A" />
  <rect x="77.9" y="26.5" width="1.4" height="1.4" fill="#B5002A" />
  <rect x="79.1" y="27.6" width="1.4" height="1.4" fill="#B5002A" />
  <rect x="80.5" y="28.6" width="1" height="1.4" fill="#B5002A" />
  <rect x="81.5" y="30.1" width=".5" height="1.4" fill="#B5002A" />
  <rect x="81.9" y="32.6" width=".6" height="1.4" fill="#B5002A" />
  <rect x="81.1" y="34" width="1.1" height="1.4" fill="#91001D" />
  <rect x="80.1" y="36.5" width="1.4" height="1.4" fill="#B5002A" />
  <rect x="79.1" y="37.9" width="1.4" height="1.4" fill="#91001D" />
  <rect x="77.9" y="39.4" width="1.4" height="1.4" fill="#91001D" />
  <rect x="70.4" y="26.1" width=".6" height=".5" fill="#91001D" />
  <rect x="69" y="26.5" width=".7" height=".5" fill="#91001D" />
  <rect x="71.9" y="25.2" width="1.4" height="1.4" fill="#B5002A" />
  <rect x="73" y="26.1" width="1.4" height="1.4" fill="#B5002A" />
  <rect x="74.4" y="24.9" width="1.4" height=".6" fill="#010101" />
  <rect x="75.4" y="25.5" width="1.4" height=".9" fill="#010101" />
  <rect x="76.6" y="26.5" width="1.4" height="1" fill="#010101" />
  <rect x="72.4" y="27.5" width="1.4" height="1.5" fill="#010101" />
  <rect x="71.1" y="26.5" width="1.4" height="1.4" fill="#010101" />
  <rect x="71.9" y="27.7" width=".5" height="1.1" fill="#91001D" />
  <rect x="73" y="28.6" width="1.4" height="1.4" fill="#B5002A" />
  <rect x="74.4" y="29.9" width="1.4" height="1.4" fill="#B5002A" />
  <rect x="75.6" y="31.4" width="1.4" height="1.4" fill="#B5002A" />
  <rect x="76.6" y="34" width="1.4" height="1.4" fill="#B5002A" />
  <rect x="76.6" y="36.4" width="1.4" height="1.4" fill="#B5002A" />
  <rect x="76.2" y="39.2" width=".6" height="1.2" fill="#91001D" />
  <rect x="74.4" y="65.1" width="1.4" height="1.4" fill="#91001D" />
  <rect x="75.4" y="65.1" width="1.4" height="1.4" fill="#010101" />
  <rect x="77.5" y="65.1" width=".4" height="1.4" fill="#91001D" />
  <rect x="76.6" y="66.6" width="1.4" height="1" fill="#91001D" />
  <rect x="75.4" y="69.1" width="1.4" height="1.4" fill="#B5002A" />
  <rect x="74.4" y="70.5" width="1.4" height="1.4" fill="#B5002A" />
  <rect x="73" y="73" width="1.4" height="1" fill="#91001D" />
  <rect x="71.5" y="74.4" width="1.4" height="1" fill="#91001D" />
  <rect x="70.4" y="74.4" width="1.4" height=".6" fill="#91001D" />
  <rect x="73" y="65.1" width="1.4" height="1.4" fill="#91001D" />
  <rect x="71.7" y="66.5" width="1.4" height="1.4" fill="#91001D" />
  <rect x="70.4" y="67.9" width="1.4" height="1.4" fill="#91001D" />
  <rect x="71.7" y="71.7" width="1.4" height="1.4" fill="#B5002A" />
  <rect x="70.4" y="74.1" width="1.4" height="1.4" fill="#B5002A" />
  <rect x="70.4" y="72.1" width="1.4" height="1.4" fill="#91001D" />
  <rect x="73" y="67.7" width="1.4" height="2.9" fill="#91001D" />
  <rect x="71.7" y="70.5" width="1.4" height="1.4" fill="#91001D" />
  <rect x="70.4" y="71.9" width="1.4" height="1.4" fill="#91001D" />
  <rect x="73" y="70.5" width="1.4" height="1.4" fill="#010101" />
  <rect x="74.4" y="72.1" width="1.4" height="1.4" fill="#91001D" />
  <rect x="75.4" y="71.4" width="1.4" height="1" fill="#91001D" />
  <rect x="76.4" y="70.5" width=".6" height="1.1" fill="#91001D" />
  <rect x="75.4" y="66.5" width="1.4" height="1.4" fill="#91001D" />
  <rect x="73" y="73" width="1.4" height="1.4" fill="#91001D" />
  <rect x="73" y="74.4" width="1.4" height="1" fill="#91001D" />
  <rect x="62.9" y="45.2" width="1.4" height="1.4" fill="#010101" />
  <rect x="65.4" y="44.1" width="1.4" height="1.4" fill="#010101" />
  <rect x="64.1" y="44.1" width="1.4" height="1.4" fill="#91001D" />
  <rect x="60.4" y="45.4" width="1.4" height="1.4" fill="#010101" />
  <rect x="62.9" y="46.6" width="1.4" height="1.1" fill="#010101" />
  <rect x="60.4" y="46.6" width="1.4" height=".9" fill="#91001D" />
  <rect x="65.4" y="43" width="1.4" height="1.4" fill="#010101" />
  <rect x="65.7" y="45.5" width="1.4" height="1.4" fill="#91001D" />
  <rect x="65.4" y="46.9" width="1.4" height="1.1" fill="#91001D" />
  <rect x="67.9" y="41.7" width="1.4" height="1.1" fill="#010101" />
  <rect x="67.5" y="43" width="1.4" height="1.4" fill="#010101" />
  <rect x="69" y="40.5" width="1.4" height="1.4" fill="#010101" />
  <rect x="67.9" y="45.5" width="1.4" height="1.1" fill="#010101" />
  <rect x="69" y="40.5" width="1.4" height="1.4" fill="#B5002A" />
  <rect x="69" y="43" width="1.4" height="1.4" fill="#010101" />
  <rect x="69" y="45.4" width="1.4" height="1" fill="#B5002A" />
  <rect x="70.4" y="41.7" width="1.4" height="1.4" fill="#010101" />
  <rect x="71.4" y="43" width="1.4" height="1.4" fill="#010101" />
  <rect x="67.9" y="28.5" width="1.1" height="1.6" fill="#010101" />
  <rect x="67.9" y="29.9" width="1.4" height="1.4" fill="#B5002A" />
  <rect x="69" y="29.5" width="1.4" height="1.4" fill="#B5002A" />
  <rect x="69" y="31.4" width="1.4" height="1.1" fill="#010101" />
  <rect x="70.4" y="30" width="1.1" height="1.4" fill="#B5002A" />
  <rect x="67.9" y="44.1" width="1.1" height="1.4" fill="#B5002A" />
  <rect x="69" y="43" width="1.4" height="1.4" fill="#B5002A" />
  <rect x="67.9" y="46.4" width="1.4" height=".6" fill="#B5002A" />
  <rect x="67.9" y="49.4" width="1.4" height="1.4" fill="#010101" />
  <rect x="67.9" y="51.4" width="1.4" height="1.4" fill="#010101" />
  <rect x="65.4" y="50.2" width="1.4" height="1.4" fill="#010101" />
  <rect x="67.9" y="53" width="1.4" height="1.4" fill="#010101" />
  <rect x="69.1" y="50.5" width="1.1" height="1.4" fill="#010101" />
  <rect x="65.4" y="52.7" width="1.4" height="1.5" fill="#010101" />
  <rect x="67.9" y="54.4" width="1.4" height="1.4" fill="#010101" />
  <rect x="69.1" y="52.6" width="1.4" height="1.4" fill="#B5002A" />
  <rect x="65.4" y="55.2" width="1.4" height="1.4" fill="#010101" />
  <rect x="67.9" y="56.6" width="1.4" height="1.4" fill="#010101" />
  <rect x="69.1" y="55.4" width="1.4" height="1.4" fill="#B5002A" />
  <rect x="65.4" y="57.6" width="1.4" height="1.4" fill="#010101" />
  <rect x="67.9" y="58.9" width="1.4" height="1.4" fill="#B5002A" />
  <rect x="69.1" y="57.6" width=".9" height="1.4" fill="#B5002A" />
  <rect x="66.6" y="60.1" width="1.4" height="1.4" fill="#B5002A" />
  <rect x="74.4" y="26.5" width="1.4" height="1.4" fill="#010101" />
  <rect x="75.4" y="26.5" width="1.4" height="1.4" fill="#B5002A" />
  <rect x="76.6" y="26.5" width="1.4" height="1.4" fill="#010101" />
  <rect x="77.9" y="27.7" width="1.4" height="1.4" fill="#010101" />
  <rect x="76.6" y="27.9" width="1.4" height="1.4" fill="#B5002A" />
  <rect x="77.9" y="29" width="1.4" height="1.4" fill="#010101" />
  <rect x="76.6" y="29.4" width="1.4" height="1.4" fill="#B5002A" />
  <rect x="79.1" y="29" width="1.4" height="1.4" fill="#B5002A" />
  <rect x="77.9" y="30.4" width="1.4" height="1.4" fill="#B5002A" />
  <rect x="80.5" y="29" width="1" height="1.4" fill="#B5002A" />
  <rect x="80.5" y="31.1" width="1.4" height="1.4" fill="#B5002A" />
  <rect x="79.1" y="32.5" width="1.4" height="1.4" fill="#B5002A" />
  <rect x="77.9" y="32.6" width="1.4" height="1.4" fill="#B5002A" />
  <rect x="79.1" y="34" width="1.4" height="1.4" fill="#B5002A" />
  <rect x="76.6" y="34" width="1.4" height="1.4" fill="#010101" />
  <rect x="77.9" y="35.4" width="1.4" height="1.4" fill="#010101" />
  <rect x="76.6" y="35.4" width="1.4" height="1.4" fill="#010101" />
  <rect x="80.1" y="35.4" width="1.4" height="1.1" fill="#91001D" />
  <rect x="79.1" y="36.6" width="1" height="1.4" fill="#B5002A" />
  <rect x="77.9" y="37.9" width="1.4" height=".9" fill="#91001D" />
  <rect x="79.1" y="44.1" width="1.4" height="1.4" fill="#91001D" />
  <rect x="77.9" y="44.1" width="1.4" height="1.4" fill="#B5002A" />
  <rect x="80.7" y="44.1" width="1.4" height="1.4" fill="#91001D" />
  <rect x="81.6" y="43.4" width=".9" height=".9" fill="#91001D" />
  <rect x="76.6" y="45.4" width="1.4" height="1.4" fill="#B5002A" />
  <rect x="74.1" y="45.4" width="1.4" height="1.4" fill="#B5002A" />
  <rect x="73" y="46.6" width="1.4" height="1.4" fill="#B5002A" />
  <rect x="71.7" y="47.9" width="1.4" height="1.4" fill="#B5002A" />
  <rect x="75.4" y="46.6" width="1.4" height="1.4" fill="#B5002A" />
  <rect x="77.9" y="46.6" width="1.4" height="1.4" fill="#010101" />
  <rect x="79.1" y="46.6" width="1.4" height="1.4" fill="#B5002A" />
  <rect x="80.5" y="46.6" width="1.4" height="1.4" fill="#B5002A" />
  <rect x="82.1" y="45.5" width="1" height="1.5" fill="#B5002A" />
  <rect x="74.1" y="47.9" width="1.4" height="1.4" fill="#010101" />
  <rect x="76.6" y="47.9" width="1.4" height="1.4" fill="#B5002A" />
  <rect x="80.6" y="47.9" width="1.4" height="1.4" fill="#010101" />
  <rect x="82.9" y="46.6" width=".9" height="1.4" fill="#B5002A" />
  <rect x="79.1" y="47.9" width="1.4" height="1.4" fill="#010101" />
  <rect x="82.1" y="47.9" width="1.4" height="1.4" fill="#010101" />
  <rect x="84.2" y="48.4" width=".1" height=".9" fill="#91001D" />
  <rect x="84" y="50.4" width=".4" height="1.4" fill="#91001D" />
  <rect x="83.2" y="52.9" width="1" height="1.4" fill="#B5002A" />
  <rect x="83.2" y="53.1" width="1" height="1.4" fill="#91001D" />
  <rect x="83.2" y="51.2" width=".9" height="1.4" fill="#B5002A" />
  <rect x="83.4" y="49.1" width=".6" height="1.4" fill="#B5002A" />
  <rect x="82.1" y="49.4" width="1.1" height="1.1" fill="#B5002A" />
  <rect x="75.4" y="49.4" width="1.4" height="1.4" fill="#B5002A" />
  <rect x="73" y="49.2" width="1.4" height="1.4" fill="#B5002A" />
  <rect x="72.5" y="50.4" width=".4" height="1.4" fill="#B5002A" />
  <rect x="80.5" y="49.4" width="1.4" height="1.4" fill="#010101" />
  <rect x="79.1" y="49.4" width="1.4" height="1.4" fill="#B5002A" />
  <rect x="77.9" y="49.4" width="1.4" height="1.4" fill="#010101" />
  <rect x="76.6" y="50.4" width="1.4" height="1.4" fill="#010101" />
  <rect x="75.4" y="51.4" width="1.4" height="1.4" fill="#B5002A" />
  <rect x="74.1" y="51.4" width="1.4" height="1.4" fill="#B5002A" />
  <rect x="73" y="51.4" width="1.4" height="1.4" fill="#010101" />
  <rect x="82.1" y="52.9" width="1" height="1.4" fill="#B5002A" />
  <rect x="80.5" y="51.4" width="1.4" height="1.4" fill="#010101" />
  <rect x="79.1" y="51.4" width="1.4" height="1.4" fill="#010101" />
  <rect x="77.9" y="51.4" width="1.4" height="1.4" fill="#B5002A" />
  <rect x="81.9" y="55.2" width="1.1" height="1" fill="#B5002A" />
  <rect x="81.4" y="55.7" width="1.2" height="1" fill="#91001D" />
  <rect x="80.5" y="53.9" width="1.4" height="1.4" fill="#B5002A" />
  <rect x="79.1" y="54.4" width="1.4" height="1.4" fill="#010101" />
  <rect x="77.9" y="54.4" width="1.4" height="1.4" fill="#B5002A" />
  <rect x="76.4" y="54.4" width="1.4" height="1.4" fill="#010101" />
  <rect x="75.4" y="54.4" width="1.4" height="1.4" fill="#B5002A" />
  <rect x="73" y="54" width="1.6" height="1.4" fill="#B5002A" />
  <rect x="80.5" y="56.6" width="1.4" height="1.1" fill="#B5002A" />
  <rect x="79.1" y="57.6" width="1.4" height="1.1" fill="#B5002A" />
  <rect x="77.6" y="59.6" width="1.4" height=".6" fill="#91001D" />
  <rect x="76.6" y="59.9" width="1.4" height=".4" fill="#91001D" />
  <rect x="75.4" y="58.9" width="1.4" height="1.1" fill="#91001D" />
  <rect x="73" y="58.9" width="1.4" height="1.1" fill="#91001D" />
  <rect x="74.4" y="58.1" width="1.4" height=".9" fill="#B5002A" />
  <rect x="73" y="56.5" width="1.6" height="1.4" fill="#B5002A" />
  <rect x="75.5" y="56.5" width="1.4" height="1.4" fill="#B5002A" />
  <rect x="79.1" y="56.4" width="1.4" height="1.4" fill="#010101" />
  <rect x="77.9" y="56.6" width="1.4" height="1.4" fill="#B5002A" />
  <rect x="76.6" y="57.6" width="1.4" height="1.4" fill="#010101" />
  <rect x="77.6" y="58.9" width="1.4" height=".9" fill="#B5002A" />
  <rect x="69.1" y="32.6" width="1.4" height="1.4" fill="#010101" />
  <rect x="67.9" y="32.6" width="1.1" height="1.4" fill="#B5002A" />
  <rect x="70.4" y="32.6" width="1.4" height="1.4" fill="#B5002A" />
  <rect x="71.5" y="31.2" width="1" height="1.4" fill="#B5002A" />
  <rect x="70.4" y="34" width="1.4" height="1.4" fill="#010101" />
  <rect x="71.9" y="32.9" width="1" height="1.4" fill="#B5002A" />
  <rect x="67.9" y="34.1" width="1.4" height="1.4" fill="#B5002A" />
  <rect x="73" y="34" width="1" height="1.4" fill="#B5002A" />
  <rect x="70.4" y="35.4" width="1.4" height="1.4" fill="#B5002A" />
  <rect x="67.9" y="35.4" width="1.4" height="1.4" fill="#010101" />
  <rect x="70.4" y="36.6" width="1.4" height="1.4" fill="#010101" />
  <rect x="71.9" y="36.6" width="1.4" height="1.4" fill="#B5002A" />
  <rect x="73.1" y="35.2" width="1.1" height="1.4" fill="#B5002A" />
  <rect x="70.4" y="37.9" width="1.4" height="1.4" fill="#010101" />
  <rect x="73.1" y="36.9" width="1.4" height="1.4" fill="#010101" />
  <rect x="67.9" y="37.9" width="1.4" height="1.4" fill="#B5002A" />
  <rect x="71.9" y="39" width="1.4" height="1.4" fill="#010101" />
  <rect x="73.4" y="39.1" width="1" height="1.4" fill="#B5002A" />
  <rect x="70.4" y="40.4" width="1.4" height="1.4" fill="#B5002A" />
  <rect x="71.9" y="41.4" width="1.4" height="1.4" fill="#010101" />
  <rect x="72.9" y="41.9" width=".9" height="1" fill="#B5002A" />
</svg>